<svg id="ШАПКА" xmlns="http://www.w3.org/2000/svg" viewBox="0 0 271.38 19.48"><defs><style>.legend-1{fill:#07777a}.legend-2{fill:#198085}.legend-3{fill:#26878d}.legend-4{fill:#389198}.legend-5{fill:#489aa2}.legend-6{fill:#59a3ac}.legend-7{fill:#68abb5}.legend-8{fill:#78b3bf}.legend-9{fill:#87bbc7}.legend-10{fill:#97c4d1}.legend-11{fill:#a6ccda}.legend-12{fill:#b7d5e4}.legend-13{fill:#c9dfef}.legend-14{fill:#e7ebee}</style></defs><title>legend</title><g id="ИКОНКИ"><g id="ВАЛОВЫЙ_РЕГИОН_ПРОДУКТ" data-name="ВАЛОВЫЙ РЕГИОН ПРОДУКТ"><path class="legend-1" d="M0 0h20.87v19.48H0z"/><path class="legend-2" d="M20.87 0h20.87v19.48H20.87z"/><path class="legend-3" d="M41.75 0h20.88v19.48H41.75z"/><path class="legend-4" d="M62.63 0H83.5v19.48H62.63z"/><path class="legend-5" d="M83.5 0h20.88v19.48H83.5z"/><path class="legend-6" d="M104.38 0h20.87v19.48h-20.87z"/><path class="legend-7" d="M125.25 0h20.88v19.48h-20.88z"/><path class="legend-8" d="M146.13 0H167v19.48h-20.87z"/><path class="legend-9" d="M167 0h20.88v19.48H167z"/><path class="legend-10" d="M187.88 0h20.87v19.48h-20.87z"/><path class="legend-11" d="M208.75 0h20.88v19.48h-20.88z"/><path class="legend-12" d="M229.63 0h20.87v19.48h-20.87z"/><path class="legend-13" d="M250.5 0h20.88v19.48H250.5z"/><path class="legend-14" d="M561.7-2109.84a1.08 1.08 0 0 1 0 .23.57.57 0 0 1-.05.16.22.22 0 0 1-.08.09h-2.4v2.54a.16.16 0 0 1 0 .09.24.24 0 0 1-.09.07h-.8a.21.21 0 0 1-.09-.07.15.15 0 0 1 0-.09v-2.54h-2.29a.2.2 0 0 1-.11 0 .23.23 0 0 1-.08-.09.57.57 0 0 1-.06-.16 1.1 1.1 0 0 1 0-.23 1 1 0 0 1 0-.22.56.56 0 0 1 .06-.16.23.23 0 0 1 .08-.09.19.19 0 0 1 .1 0h2.29v-2.54a.18.18 0 0 1 0-.1.2.2 0 0 1 .09-.08h.8a.23.23 0 0 1 .09.08.2.2 0 0 1 0 .1v2.54h2.29a.19.19 0 0 1 .1 0 .29.29 0 0 1 .08.09.46.46 0 0 1 .05.16 1.2 1.2 0 0 1 .02.22z" transform="translate(-548.88 2119.59)"/><path class="legend-1" d="M813.08-2109.85a.47.47 0 0 1-.12.38.49.49 0 0 1-.34.11h-5.57a.52.52 0 0 1-.36-.11.48.48 0 0 1-.12-.37.47.47 0 0 1 .12-.37.53.53 0 0 1 .36-.1H812.81a.32.32 0 0 1 .15.08.4.4 0 0 1 .09.15.61.61 0 0 1 .03.23z" transform="translate(-548.88 2119.59)"/></g></g></svg>