<svg id="ШАПКА" xmlns="http://www.w3.org/2000/svg" viewBox="0 0 271.38 19.48">
  <defs>
    <style>
      .legend-1 {
        fill: #07777a;
      }

      .legend-2 {
        fill: #198085;
      }

      .legend-3 {
        fill: #26878d;
      }

      .legend-4 {
        fill: #389198;
      }

      .legend-5 {
        fill: #489aa2;
      }

      .legend-6 {
        fill: #59a3ac;
      }

      .legend-7 {
        fill: #68abb5;
      }

      .legend-8 {
        fill: #78b3bf;
      }

      .legend-9 {
        fill: #87bbc7;
      }

      .legend-10 {
        fill: #97c4d1;
      }

      .legend-11 {
        fill: #a6ccda;
      }

      .legend-12 {
        fill: #b7d5e4;
      }

      .legend-13 {
        fill: #c9dfef;
      }

      .legend-14 {
        fill: #e7ebee;
      }
    </style>
  </defs>
  <title>legend</title>
  <g id="ИКОНКИ">
    <g id="ВАЛОВЫЙ_РЕГИОН_ПРОДУКТ" data-name="ВАЛОВЫЙ РЕГИОН ПРОДУКТ">
      <rect class="legend-1" width="20.87" height="19.48"/>
      <rect class="legend-2" x="20.87" width="20.87" height="19.48"/>
      <rect class="legend-3" x="41.75" width="20.88" height="19.48"/>
      <rect class="legend-4" x="62.63" width="20.87" height="19.48"/>
      <rect class="legend-5" x="83.5" width="20.88" height="19.48"/>
      <rect class="legend-6" x="104.38" width="20.87" height="19.48"/>
      <rect class="legend-7" x="125.25" width="20.88" height="19.48"/>
      <rect class="legend-8" x="146.13" width="20.87" height="19.48"/>
      <rect class="legend-9" x="167" width="20.88" height="19.48"/>
      <rect class="legend-10" x="187.88" width="20.87" height="19.48"/>
      <rect class="legend-11" x="208.75" width="20.88" height="19.48"/>
      <rect class="legend-12" x="229.63" width="20.87" height="19.48"/>
      <rect class="legend-13" x="250.5" width="20.88" height="19.48"/>
      <path class="legend-14" d="M561.7-2109.84a1.08,1.08,0,0,1,0,.23,0.57,0.57,0,0,1-.05.16,0.22,0.22,0,0,1-.08.09l-0.11,0h-2.29v2.54a0.16,0.16,0,0,1,0,.09,0.24,0.24,0,0,1-.09.07l-0.16,0-0.24,0-0.24,0-0.16,0a0.21,0.21,0,0,1-.09-0.07,0.15,0.15,0,0,1,0-.09v-2.54h-2.29a0.2,0.2,0,0,1-.11,0,0.23,0.23,0,0,1-.08-0.09,0.57,0.57,0,0,1-.06-0.16,1.1,1.1,0,0,1,0-.23,1,1,0,0,1,0-.22,0.56,0.56,0,0,1,.06-0.16,0.23,0.23,0,0,1,.08-0.09,0.19,0.19,0,0,1,.1,0h2.29v-2.54a0.18,0.18,0,0,1,0-.1,0.2,0.2,0,0,1,.09-0.08l0.16,0,0.24,0,0.24,0,0.16,0a0.23,0.23,0,0,1,.09.08,0.2,0.2,0,0,1,0,.1v2.54h2.29a0.19,0.19,0,0,1,.1,0,0.29,0.29,0,0,1,.08.09,0.46,0.46,0,0,1,.05.16A1.2,1.2,0,0,1,561.7-2109.84Z" transform="translate(-548.88 2119.59)"/>
      <path class="legend-1" d="M813.08-2109.85a0.47,0.47,0,0,1-.12.38,0.49,0.49,0,0,1-.34.11h-5.57a0.52,0.52,0,0,1-.36-0.11,0.48,0.48,0,0,1-.12-0.37,0.47,0.47,0,0,1,.12-0.37,0.53,0.53,0,0,1,.36-0.1h5.57l0.19,0a0.32,0.32,0,0,1,.15.08,0.4,0.4,0,0,1,.09.15A0.61,0.61,0,0,1,813.08-2109.85Z" transform="translate(-548.88 2119.59)"/>
    </g>
  </g>
</svg>
