<svg id="Layer_1" xmlns="http://www.w3.org/2000/svg" xmlns:xlink="http://www.w3.org/1999/xlink" viewBox="0 0 134 134"><style>.st0{clip-path:url(#SVGID_2_)}.st1,.st2{fill:none;stroke:#adb5b7;stroke-width:.75;stroke-miterlimit:10}.st2{stroke-dasharray:2.9878,2.9878}</style><defs><path id="SVGID_1_" d="M8 126.5V1H1v132.5h132.5v-7z"/></defs><clipPath id="SVGID_2_"><use xlink:href="#SVGID_1_" overflow="visible"/></clipPath><g class="st0"><path class="st1" d="M.6-19.1L13-31.5M.6-15.3L13-27.7M.6-11.5L13-23.9M.6-7.7L13-20M.6-3.9L13-16.2M.6 0L13-12.4M.6 3.8L13-8.6M.6 7.6L13-4.8M.6 11.4L13-.9M.6 15.2L13 2.9M.6 19.1L13 6.7M.6 22.9L13 10.5M.6 26.7L13 14.3M.6 30.5L13 18.2M.6 34.3L13 22M.6 38.2L13 25.8M.6 42L13 29.6M.6 45.8L13 33.5M.6 49.6L13 37.3M.6 53.5L13 41.1M.6 57.3L13 44.9M.6 61.1L13 48.7M.6 64.9L13 52.6M.6 68.7L13 56.4M.6 72.6L13 60.2M.6 76.4L13 64M.6 80.2L13 67.8M.6 84L13 71.7M.6 87.8L13 75.5M.6 91.7L13 79.3M.6 95.5L13 83.1M.6 99.3L13 86.9M.6 103.1L13 90.8M.6 106.9L13 94.6M.6 110.8L13 98.4M.6 114.6L13 102.2M.6 118.4L13 106M.6 122.2L13 109.9M119 126l12.3-12.3M119 129.9l12.3-12.4M119 133.7l12.3-12.4M119 137.5l12.3-12.3M126.8 125.9l12.3-12.4M126.8 129.7l12.3-12.4M126.8 133.5l12.3-12.3M126.8 137.3l12.3-12.3M111.3 126l12.4-12.3M111.3 129.9l12.4-12.4M111.3 133.7l12.4-12.4M111.3 137.5l12.4-12.3M103.7 126l12.4-12.3M103.7 129.9l12.4-12.4M103.7 133.7l12.4-12.4M103.7 137.5l12.4-12.3M96.1 126l12.3-12.3M96.1 129.9l12.3-12.4M96.1 133.7l12.3-12.4M96.1 137.5l12.3-12.3"/><g><path class="st1" d="M88.4 126l12.4-12.3M88.4 129.9l12.4-12.4M88.4 133.7l12.4-12.4M88.4 137.5l12.4-12.3"/></g><g><path class="st1" d="M80.8 126l12.4-12.3M80.8 129.9l12.4-12.4M80.8 133.7l12.4-12.4M80.8 137.5l12.4-12.3"/></g><g><path class="st1" d="M73.2 126l12.3-12.3M73.2 129.9l12.3-12.4M73.2 133.7l12.3-12.4M73.2 137.5l12.3-12.3"/></g><g><path class="st1" d="M65.5 126l12.4-12.3M65.5 129.9l12.4-12.4M65.5 133.7l12.4-12.4M65.5 137.5l12.4-12.3"/></g><g><path class="st1" d="M57.9 126l12.3-12.3M57.9 129.9l12.3-12.4M57.9 133.7l12.3-12.4M57.9 137.5l12.3-12.3"/></g><g><path class="st1" d="M50.3 126l12.3-12.3M50.3 129.9l12.3-12.4M50.3 133.7l12.3-12.4M50.3 137.5l12.3-12.3"/></g><g><path class="st1" d="M42.6 126L55 113.7M42.6 129.9L55 117.5M42.6 133.7L55 121.3M42.6 137.5L55 125.2"/></g><g><path class="st1" d="M35 126l12.3-12.3M35 129.9l12.3-12.4M35 133.7l12.3-12.4M35 137.5l12.3-12.3"/></g><g><path class="st1" d="M27.4 126l12.3-12.3M27.4 129.9l12.3-12.4M27.4 133.7l12.3-12.4M27.4 137.5l12.3-12.3"/></g><g><path class="st1" d="M19.7 126l12.4-12.3M19.7 129.9l12.4-12.4M19.7 133.7l12.4-12.4M19.7 137.5l12.4-12.3"/></g><g><path class="st1" d="M12.1 126l12.3-12.3M12.1 129.9l12.3-12.4M12.1 133.7l12.3-12.4M12.1 137.5l12.3-12.3"/></g><g><path class="st1" d="M4.5 126l12.3-12.3M4.5 129.9l12.3-12.4M4.5 133.7l12.3-12.4M4.5 137.5l12.3-12.3"/></g><g><path class="st1" d="M-3.2 126l12.4-12.3M-3.2 129.9l12.4-12.4M-3.2 133.7l12.4-12.4M-3.2 137.5l12.4-12.3"/></g></g><g><path class="st1" d="M8 1h1.5"/><path class="st2" d="M12.5 1h118"/><path class="st1" d="M132 1h1.5v1.5"/><path class="st2" d="M133.5 5.5v118"/><path class="st1" d="M133.5 125v1.5"/></g><path class="st1" d="M8 126.5V1H1v132.5h132.5v-7z"/></svg>