<?xml version="1.0" encoding="utf-8"?>
<!-- Generator: Adobe Illustrator 19.2.1, SVG Export Plug-In . SVG Version: 6.00 Build 0)  -->
<svg version="1.1" id="Layer_1" xmlns="http://www.w3.org/2000/svg" xmlns:xlink="http://www.w3.org/1999/xlink" x="0px" y="0px"
	 viewBox="0 0 134 134" style="enable-background:new 0 0 134 134;" xml:space="preserve">
<style type="text/css">
	.st0{clip-path:url(#SVGID_2_);}
	.st1{fill:none;stroke:#ADB5B7;stroke-width:0.75;stroke-miterlimit:10;}
	.st2{fill:none;stroke:#ADB5B7;stroke-width:0.75;stroke-miterlimit:10;stroke-dasharray:2.9878,2.9878;}
</style>
<g>
	<defs>
		<polygon id="SVGID_1_" points="8,126.5 8,1 1,1 1,133.5 133.5,133.5 133.5,126.5 		"/>
	</defs>
	<clipPath id="SVGID_2_">
		<use xlink:href="#SVGID_1_"  style="overflow:visible;"/>
	</clipPath>
	<g class="st0">
		<line class="st1" x1="0.6" y1="-19.1" x2="13" y2="-31.5"/>
		<line class="st1" x1="0.6" y1="-15.3" x2="13" y2="-27.7"/>
		<line class="st1" x1="0.6" y1="-11.5" x2="13" y2="-23.9"/>
		<line class="st1" x1="0.6" y1="-7.7" x2="13" y2="-20"/>
		<line class="st1" x1="0.6" y1="-3.9" x2="13" y2="-16.2"/>
		<line class="st1" x1="0.6" y1="0" x2="13" y2="-12.4"/>
		<line class="st1" x1="0.6" y1="3.8" x2="13" y2="-8.6"/>
		<line class="st1" x1="0.6" y1="7.6" x2="13" y2="-4.8"/>
		<line class="st1" x1="0.6" y1="11.4" x2="13" y2="-0.9"/>
		<line class="st1" x1="0.6" y1="15.2" x2="13" y2="2.9"/>
		<line class="st1" x1="0.6" y1="19.1" x2="13" y2="6.7"/>
		<line class="st1" x1="0.6" y1="22.9" x2="13" y2="10.5"/>
		<line class="st1" x1="0.6" y1="26.7" x2="13" y2="14.3"/>
		<line class="st1" x1="0.6" y1="30.5" x2="13" y2="18.2"/>
		<line class="st1" x1="0.6" y1="34.3" x2="13" y2="22"/>
		<line class="st1" x1="0.6" y1="38.2" x2="13" y2="25.8"/>
		<line class="st1" x1="0.6" y1="42" x2="13" y2="29.6"/>
		<line class="st1" x1="0.6" y1="45.8" x2="13" y2="33.5"/>
		<line class="st1" x1="0.6" y1="49.6" x2="13" y2="37.3"/>
		<line class="st1" x1="0.6" y1="53.5" x2="13" y2="41.1"/>
		<line class="st1" x1="0.6" y1="57.3" x2="13" y2="44.9"/>
		<line class="st1" x1="0.6" y1="61.1" x2="13" y2="48.7"/>
		<line class="st1" x1="0.6" y1="64.9" x2="13" y2="52.6"/>
		<line class="st1" x1="0.6" y1="68.7" x2="13" y2="56.4"/>
		<line class="st1" x1="0.6" y1="72.6" x2="13" y2="60.2"/>
		<line class="st1" x1="0.6" y1="76.4" x2="13" y2="64"/>
		<line class="st1" x1="0.6" y1="80.2" x2="13" y2="67.8"/>
		<line class="st1" x1="0.6" y1="84" x2="13" y2="71.7"/>
		<line class="st1" x1="0.6" y1="87.8" x2="13" y2="75.5"/>
		<line class="st1" x1="0.6" y1="91.7" x2="13" y2="79.3"/>
		<line class="st1" x1="0.6" y1="95.5" x2="13" y2="83.1"/>
		<line class="st1" x1="0.6" y1="99.3" x2="13" y2="86.9"/>
		<line class="st1" x1="0.6" y1="103.1" x2="13" y2="90.8"/>
		<line class="st1" x1="0.6" y1="106.9" x2="13" y2="94.6"/>
		<line class="st1" x1="0.6" y1="110.8" x2="13" y2="98.4"/>
		<line class="st1" x1="0.6" y1="114.6" x2="13" y2="102.2"/>
		<line class="st1" x1="0.6" y1="118.4" x2="13" y2="106"/>
		<line class="st1" x1="0.6" y1="122.2" x2="13" y2="109.9"/>
		<g>
			<line class="st1" x1="119" y1="126" x2="131.3" y2="113.7"/>
			<line class="st1" x1="119" y1="129.9" x2="131.3" y2="117.5"/>
			<line class="st1" x1="119" y1="133.7" x2="131.3" y2="121.3"/>
			<line class="st1" x1="119" y1="137.5" x2="131.3" y2="125.2"/>
		</g>
		<g>
			<line class="st1" x1="126.8" y1="125.9" x2="139.1" y2="113.5"/>
			<line class="st1" x1="126.8" y1="129.7" x2="139.1" y2="117.3"/>
			<line class="st1" x1="126.8" y1="133.5" x2="139.1" y2="121.2"/>
			<line class="st1" x1="126.8" y1="137.3" x2="139.1" y2="125"/>
		</g>
		<g>
			<line class="st1" x1="111.3" y1="126" x2="123.7" y2="113.7"/>
			<line class="st1" x1="111.3" y1="129.9" x2="123.7" y2="117.5"/>
			<line class="st1" x1="111.3" y1="133.7" x2="123.7" y2="121.3"/>
			<line class="st1" x1="111.3" y1="137.5" x2="123.7" y2="125.2"/>
		</g>
		<g>
			<line class="st1" x1="103.7" y1="126" x2="116.1" y2="113.7"/>
			<line class="st1" x1="103.7" y1="129.9" x2="116.1" y2="117.5"/>
			<line class="st1" x1="103.7" y1="133.7" x2="116.1" y2="121.3"/>
			<line class="st1" x1="103.7" y1="137.5" x2="116.1" y2="125.2"/>
		</g>
		<g>
			<line class="st1" x1="96.1" y1="126" x2="108.4" y2="113.7"/>
			<line class="st1" x1="96.1" y1="129.9" x2="108.4" y2="117.5"/>
			<line class="st1" x1="96.1" y1="133.7" x2="108.4" y2="121.3"/>
			<line class="st1" x1="96.1" y1="137.5" x2="108.4" y2="125.2"/>
		</g>
		<g>
			<line class="st1" x1="88.4" y1="126" x2="100.8" y2="113.7"/>
			<line class="st1" x1="88.4" y1="129.9" x2="100.8" y2="117.5"/>
			<line class="st1" x1="88.4" y1="133.7" x2="100.8" y2="121.3"/>
			<line class="st1" x1="88.4" y1="137.5" x2="100.8" y2="125.2"/>
		</g>
		<g>
			<line class="st1" x1="80.8" y1="126" x2="93.2" y2="113.7"/>
			<line class="st1" x1="80.8" y1="129.9" x2="93.2" y2="117.5"/>
			<line class="st1" x1="80.8" y1="133.7" x2="93.2" y2="121.3"/>
			<line class="st1" x1="80.8" y1="137.5" x2="93.2" y2="125.2"/>
		</g>
		<g>
			<line class="st1" x1="73.2" y1="126" x2="85.5" y2="113.7"/>
			<line class="st1" x1="73.2" y1="129.9" x2="85.5" y2="117.5"/>
			<line class="st1" x1="73.2" y1="133.7" x2="85.5" y2="121.3"/>
			<line class="st1" x1="73.2" y1="137.5" x2="85.5" y2="125.2"/>
		</g>
		<g>
			<line class="st1" x1="65.5" y1="126" x2="77.9" y2="113.7"/>
			<line class="st1" x1="65.5" y1="129.9" x2="77.9" y2="117.5"/>
			<line class="st1" x1="65.5" y1="133.7" x2="77.9" y2="121.3"/>
			<line class="st1" x1="65.5" y1="137.5" x2="77.9" y2="125.2"/>
		</g>
		<g>
			<line class="st1" x1="57.9" y1="126" x2="70.2" y2="113.7"/>
			<line class="st1" x1="57.9" y1="129.9" x2="70.2" y2="117.5"/>
			<line class="st1" x1="57.9" y1="133.7" x2="70.2" y2="121.3"/>
			<line class="st1" x1="57.9" y1="137.5" x2="70.2" y2="125.2"/>
		</g>
		<g>
			<line class="st1" x1="50.3" y1="126" x2="62.6" y2="113.7"/>
			<line class="st1" x1="50.3" y1="129.9" x2="62.6" y2="117.5"/>
			<line class="st1" x1="50.3" y1="133.7" x2="62.6" y2="121.3"/>
			<line class="st1" x1="50.3" y1="137.5" x2="62.6" y2="125.2"/>
		</g>
		<g>
			<line class="st1" x1="42.6" y1="126" x2="55" y2="113.7"/>
			<line class="st1" x1="42.6" y1="129.9" x2="55" y2="117.5"/>
			<line class="st1" x1="42.6" y1="133.7" x2="55" y2="121.3"/>
			<line class="st1" x1="42.6" y1="137.5" x2="55" y2="125.2"/>
		</g>
		<g>
			<line class="st1" x1="35" y1="126" x2="47.3" y2="113.7"/>
			<line class="st1" x1="35" y1="129.9" x2="47.3" y2="117.5"/>
			<line class="st1" x1="35" y1="133.7" x2="47.3" y2="121.3"/>
			<line class="st1" x1="35" y1="137.5" x2="47.3" y2="125.2"/>
		</g>
		<g>
			<line class="st1" x1="27.4" y1="126" x2="39.7" y2="113.7"/>
			<line class="st1" x1="27.4" y1="129.9" x2="39.7" y2="117.5"/>
			<line class="st1" x1="27.4" y1="133.7" x2="39.7" y2="121.3"/>
			<line class="st1" x1="27.4" y1="137.5" x2="39.7" y2="125.2"/>
		</g>
		<g>
			<line class="st1" x1="19.7" y1="126" x2="32.1" y2="113.7"/>
			<line class="st1" x1="19.7" y1="129.9" x2="32.1" y2="117.5"/>
			<line class="st1" x1="19.7" y1="133.7" x2="32.1" y2="121.3"/>
			<line class="st1" x1="19.7" y1="137.5" x2="32.1" y2="125.2"/>
		</g>
		<g>
			<line class="st1" x1="12.1" y1="126" x2="24.4" y2="113.7"/>
			<line class="st1" x1="12.1" y1="129.9" x2="24.4" y2="117.5"/>
			<line class="st1" x1="12.1" y1="133.7" x2="24.4" y2="121.3"/>
			<line class="st1" x1="12.1" y1="137.5" x2="24.4" y2="125.2"/>
		</g>
		<g>
			<line class="st1" x1="4.5" y1="126" x2="16.8" y2="113.7"/>
			<line class="st1" x1="4.5" y1="129.9" x2="16.8" y2="117.5"/>
			<line class="st1" x1="4.5" y1="133.7" x2="16.8" y2="121.3"/>
			<line class="st1" x1="4.5" y1="137.5" x2="16.8" y2="125.2"/>
		</g>
		<g>
			<line class="st1" x1="-3.2" y1="126" x2="9.2" y2="113.7"/>
			<line class="st1" x1="-3.2" y1="129.9" x2="9.2" y2="117.5"/>
			<line class="st1" x1="-3.2" y1="133.7" x2="9.2" y2="121.3"/>
			<line class="st1" x1="-3.2" y1="137.5" x2="9.2" y2="125.2"/>
		</g>
	</g>
</g>
<g>
	<g>
		<line class="st1" x1="8" y1="1" x2="9.5" y2="1"/>
		<line class="st2" x1="12.5" y1="1" x2="130.5" y2="1"/>
		<polyline class="st1" points="132,1 133.5,1 133.5,2.5 		"/>
		<line class="st2" x1="133.5" y1="5.5" x2="133.5" y2="123.5"/>
		<line class="st1" x1="133.5" y1="125" x2="133.5" y2="126.5"/>
	</g>
</g>
<polygon class="st1" points="8,126.5 8,1 1,1 1,133.5 133.5,133.5 133.5,126.5 "/>
</svg>
