<svg id="ЛЕВЫЙ_БЛОК" data-name="ЛЕВЫЙ БЛОК" xmlns="http://www.w3.org/2000/svg" viewBox="0 0 54.22 52.82">
  <defs>
    <style>
      .icon-num-3-1 {
        fill: #37393a;
      }

      .icon-num-3-2 {
        fill: #e5d68c;
      }

      .icon-num-3-3 {
        fill: none;
      }

      .icon-num-3-3, .icon-num-3-4, .icon-num-3-5 {
        stroke: #37393a;
        stroke-miterlimit: 10;
      }

      .icon-num-3-4 {
        fill: #8eadbc;
      }

      .icon-num-3-5 {
        fill: #96bf6a;
      }
    </style>
  </defs>
  <title>statistic__icon_num_3</title>
  <g id="СРЕДНЯЯ_СТОИМОСТЬ_КВ" data-name="СРЕДНЯЯ СТОИМОСТЬ КВ">
    <g>
      <rect class="icon-num-3-1" x="39.05" y="38.7" width="2.65" height="1.26"/>
      <g>
        <path class="icon-num-3-1" d="M-55.11-1734.77a4.18,4.18,0,0,1,3,1,3.34,3.34,0,0,1,1.05,2.57,3.34,3.34,0,0,1-1.05,2.58,4.2,4.2,0,0,1-3,1h-2.51v3.5l1.33,0.23v1h-4.26v-1l1.33-.23v-9.33l-1.33-.23v-1h5.44Zm-2.51,5.84h2.51a2.34,2.34,0,0,0,1.8-.65,2.31,2.31,0,0,0,.6-1.63,2.36,2.36,0,0,0-.6-1.64,2.31,2.31,0,0,0-1.8-.66h-2.51v4.58Z" transform="translate(99.23 1767.63)"/>
        <rect class="icon-num-3-1" x="39.05" y="40.95" width="6.49" height="1.26"/>
      </g>
    </g>
    <path class="icon-num-3-2" d="M-56.83-1724.62a23.24,23.24,0,0,1-18.62,9.31,23.23,23.23,0,0,1-18.07-8.61h0v-40.16h36.69v39.45h0Z" transform="translate(99.23 1767.63)"/>
    <polyline class="icon-num-3-3" points="5.71 43.72 5.71 3.56 42.4 3.56 42.4 43.01"/>
    <g>
      <rect class="icon-num-3-4" x="11.44" y="11.71" width="6.89" height="10.52"/>
      <rect class="icon-num-3-4" x="20.61" y="11.71" width="6.89" height="10.52"/>
      <rect class="icon-num-3-4" x="29.78" y="11.71" width="6.89" height="10.52"/>
    </g>
    <g>
      <line class="icon-num-3-3" x1="14.88" y1="22.22" x2="14.88" y2="16.18"/>
      <line class="icon-num-3-3" x1="18.32" y1="16.18" x2="11.44" y2="16.18"/>
    </g>
    <g>
      <line class="icon-num-3-3" x1="33.23" y1="22.22" x2="33.23" y2="16.18"/>
      <line class="icon-num-3-3" x1="36.67" y1="16.18" x2="29.78" y2="16.18"/>
    </g>
    <g>
      <line class="icon-num-3-3" x1="24.05" y1="22.22" x2="24.05" y2="16.18"/>
      <line class="icon-num-3-3" x1="27.5" y1="16.18" x2="20.61" y2="16.18"/>
    </g>
    <g>
      <rect class="icon-num-3-4" x="11.44" y="30.41" width="6.89" height="10.52"/>
      <rect class="icon-num-3-4" x="20.61" y="30.41" width="6.89" height="10.52"/>
      <rect class="icon-num-3-4" x="29.78" y="30.41" width="6.89" height="10.52"/>
    </g>
    <g>
      <line class="icon-num-3-3" x1="14.88" y1="40.92" x2="14.88" y2="34.88"/>
      <line class="icon-num-3-3" x1="18.32" y1="34.88" x2="11.44" y2="34.88"/>
    </g>
    <g>
      <line class="icon-num-3-3" x1="33.23" y1="40.92" x2="33.23" y2="34.88"/>
      <line class="icon-num-3-3" x1="36.67" y1="34.88" x2="29.78" y2="34.88"/>
    </g>
    <g>
      <line class="icon-num-3-3" x1="24.05" y1="40.92" x2="24.05" y2="34.88"/>
      <line class="icon-num-3-3" x1="27.5" y1="34.88" x2="20.61" y2="34.88"/>
    </g>
    <path class="icon-num-3-3" d="M-56.83-1752.56a23.17,23.17,0,0,1,4.66,14,23.28,23.28,0,0,1-23.28,23.28,23.28,23.28,0,0,1-23.28-23.28,23.18,23.18,0,0,1,5.21-14.67" transform="translate(99.23 1767.63)"/>
    <line class="icon-num-3-3" x1="5.71" y1="25.97" x2="11.44" y2="25.97"/>
    <line class="icon-num-3-3" x1="5.71" y1="7.13" x2="11.44" y2="7.13"/>
    <line class="icon-num-3-3" x1="36.37" y1="8.17" x2="42.1" y2="8.17"/>
    <circle class="icon-num-3-5" cx="42.59" cy="39.57" r="11.13"/>
    <g>
      <rect class="icon-num-3-1" x="39.6" y="39.48" width="2.65" height="1.26"/>
      <g>
        <path class="icon-num-3-1" d="M-54.55-1734a4.18,4.18,0,0,1,3,1,3.34,3.34,0,0,1,1.05,2.57,3.34,3.34,0,0,1-1.05,2.58,4.2,4.2,0,0,1-3,1h-2.51v3.5l1.33,0.23v1H-60v-1l1.33-.23v-9.33L-60-1733v-1h5.44Zm-2.51,5.84h2.51a2.34,2.34,0,0,0,1.8-.65,2.31,2.31,0,0,0,.6-1.63,2.36,2.36,0,0,0-.6-1.64,2.31,2.31,0,0,0-1.8-.66h-2.51v4.58Z" transform="translate(99.23 1767.63)"/>
        <rect class="icon-num-3-1" x="39.6" y="41.74" width="6.49" height="1.26"/>
      </g>
    </g>
    <line class="icon-num-3-3" x1="40.24" y1="38.99" x2="43.07" y2="38.99"/>
    <rect class="icon-num-3-3" x="3.61" y="0.5" width="40.89" height="3.06"/>
  </g>
</svg>
