<svg id="ЛЕВЫЙ_БЛОК" data-name="ЛЕВЫЙ БЛОК" xmlns="http://www.w3.org/2000/svg" viewBox="0 0 54.22 52.82"><defs><style>.icon-num-3-1{fill:#37393a}.icon-num-3-2{fill:#e5d68c}.icon-num-3-3{fill:none}.icon-num-3-3,.icon-num-3-4,.icon-num-3-5{stroke:#37393a;stroke-miterlimit:10}.icon-num-3-4{fill:#8eadbc}.icon-num-3-5{fill:#96bf6a}</style></defs><title>statistic__icon_num_3</title><g id="СРЕДНЯЯ_СТОИМОСТЬ_КВ" data-name="СРЕДНЯЯ СТОИМОСТЬ КВ"><path class="icon-num-3-1" d="M39.05 38.7h2.65v1.26h-2.65z"/><path class="icon-num-3-1" d="M-55.11-1734.77a4.18 4.18 0 0 1 3 1 3.34 3.34 0 0 1 1.05 2.57 3.34 3.34 0 0 1-1.05 2.58 4.2 4.2 0 0 1-3 1h-2.51v3.5l1.33.23v1h-4.26v-1l1.33-.23v-9.33l-1.33-.23v-1h5.44zm-2.51 5.84h2.51a2.34 2.34 0 0 0 1.8-.65 2.31 2.31 0 0 0 .6-1.63 2.36 2.36 0 0 0-.6-1.64 2.31 2.31 0 0 0-1.8-.66h-2.51v4.58z" transform="translate(99.23 1767.63)"/><path class="icon-num-3-1" d="M39.05 40.95h6.49v1.26h-6.49z"/><path class="icon-num-3-2" d="M-56.83-1724.62a23.24 23.24 0 0 1-18.62 9.31 23.23 23.23 0 0 1-18.07-8.61v-40.16h36.69v39.45z" transform="translate(99.23 1767.63)"/><path class="icon-num-3-3" d="M5.71 43.72V3.56H42.4v39.45"/><path class="icon-num-3-4" d="M11.44 11.71h6.89v10.52h-6.89zM20.61 11.71h6.89v10.52h-6.89zM29.78 11.71h6.89v10.52h-6.89z"/><path class="icon-num-3-3" d="M14.88 22.22v-6.04M18.32 16.18h-6.88M33.23 22.22v-6.04M36.67 16.18h-6.89M24.05 22.22v-6.04M27.5 16.18h-6.89"/><path class="icon-num-3-4" d="M11.44 30.41h6.89v10.52h-6.89zM20.61 30.41h6.89v10.52h-6.89zM29.78 30.41h6.89v10.52h-6.89z"/><path class="icon-num-3-3" d="M14.88 40.92v-6.04M18.32 34.88h-6.88"/><g><path class="icon-num-3-3" d="M33.23 40.92v-6.04M36.67 34.88h-6.89"/></g><g><path class="icon-num-3-3" d="M24.05 40.92v-6.04M27.5 34.88h-6.89"/></g><path class="icon-num-3-3" d="M-56.83-1752.56a23.17 23.17 0 0 1 4.66 14 23.28 23.28 0 0 1-23.28 23.28 23.28 23.28 0 0 1-23.28-23.28 23.18 23.18 0 0 1 5.21-14.67" transform="translate(99.23 1767.63)"/><path class="icon-num-3-3" d="M5.71 25.97h5.73M5.71 7.13h5.73M36.37 8.17h5.73"/><circle class="icon-num-3-5" cx="42.59" cy="39.57" r="11.13"/><g><path class="icon-num-3-1" d="M39.6 39.48h2.65v1.26H39.6z"/><path class="icon-num-3-1" d="M-54.55-1734a4.18 4.18 0 0 1 3 1 3.34 3.34 0 0 1 1.05 2.57 3.34 3.34 0 0 1-1.05 2.58 4.2 4.2 0 0 1-3 1h-2.51v3.5l1.33.23v1H-60v-1l1.33-.23v-9.33L-60-1733v-1h5.44zm-2.51 5.84h2.51a2.34 2.34 0 0 0 1.8-.65 2.31 2.31 0 0 0 .6-1.63 2.36 2.36 0 0 0-.6-1.64 2.31 2.31 0 0 0-1.8-.66h-2.51v4.58z" transform="translate(99.23 1767.63)"/><path class="icon-num-3-1" d="M39.6 41.74h6.49V43H39.6z"/></g><path class="icon-num-3-3" d="M40.24 38.99h2.83M3.61.5H44.5v3.06H3.61z"/></g></svg>