<svg id="ЛЕВЫЙ_БЛОК" data-name="ЛЕВЫЙ БЛОК" xmlns="http://www.w3.org/2000/svg" viewBox="0 0 57.97 47.4"><defs><style>.icon-svg-4-1{fill:none}.icon-svg-4-1,.icon-svg-4-2,.icon-svg-4-3,.icon-svg-4-4,.icon-svg-4-7{stroke:#37393a;stroke-miterlimit:10}.icon-svg-4-2{fill:#c660a4}.icon-svg-4-3{fill:#8eadbc}.icon-svg-4-4{fill:#fff7d7}.icon-svg-4-5{fill:#37393a}.icon-svg-4-6{fill:#fff}.icon-svg-4-7{fill:#96bf6a}</style></defs><title>statistic__icon_num_4</title><g id="СРЕДНЕЕ_ЧИСЛО_МАШИН" data-name="СРЕДНЕЕ ЧИСЛО МАШИН"><circle class="icon-svg-4-1" cx="29.14" cy="23.7" r="23.2"/><path class="icon-svg-4-2" d="M-58.84-1673.61h8.14s4.83 2 4.83 5.16v6.64a2.11 2.11 0 0 1-2 1.21h-52.34s-1.34-.09-1.34-2.1v-10.06c0-1 .94-.84 1.74-.84a6.88 6.88 0 0 0 5.41-2.59c2-2.46 4.83-6 4.83-6s.89-1.61 4.39-1.61h13.78c1.91-.01 9.7 4.91 12.56 10.19z" transform="translate(103.33 1697.42)"/><path class="icon-svg-4-3" d="M-78.08-1673.25h13.6c.54 0 1.07-.85-.27-2.15s-4.92-5.33-7.65-5.33h-13.06c-.85 0-5.86 5.55-5.86 5.55s-1.48 1.92 1.39 1.92h11.85z" transform="translate(103.33 1697.42)"/><path class="icon-svg-4-4" d="M-50.21-1673.25s-1.65 2.33 0 4.14a5.16 5.16 0 0 0 4.34 1.34 5.23 5.23 0 0 0-1.6-3.76 8.42 8.42 0 0 0-2.74-1.72z" transform="translate(103.33 1697.42)"/><path class="icon-svg-4-1" d="M25.53 16.69v17.49M1.81 34.18h55.66"/><circle class="icon-svg-4-5" cx="44.51" cy="36.3" r="6.1"/><circle class="icon-svg-4-6" cx="44.51" cy="36.3" r="3.12"/><circle class="icon-svg-4-5" cx="12.21" cy="36.3" r="6.1"/><circle class="icon-svg-4-6" cx="12.21" cy="36.3" r="3.12"/><circle class="icon-svg-4-7" cx="11.63" cy="16.69" r="11.13"/><g><circle class="icon-svg-4-5" cx="11.62" cy="10.37" r="1.54"/><path class="icon-svg-4-5" d="M-88-1680.32l-.77-3.73a.62.62 0 0 0-.06-.14 1.29 1.29 0 0 0-1.1-.78h-3.62a1.29 1.29 0 0 0-1.1.78.56.56 0 0 0-.06.14l-.77 3.73a.63.63 0 0 0 .49.75.64.64 0 0 0 .75-.49l.6-2.89v9.67a.41.41 0 0 0 .41.41h.6a.41.41 0 0 0 .41-.41v-4.65a.47.47 0 0 1 .44-.51c.24 0 .46.18.46.73v4.43a.41.41 0 0 0 .41.41h.6a.41.41 0 0 0 .41-.41v-9.79l.63 3a.64.64 0 0 0 .75.49.64.64 0 0 0 .52-.74z" transform="translate(103.33 1697.42)"/></g></g></svg>