<svg id="ЛЕВЫЙ_БЛОК" data-name="ЛЕВЫЙ БЛОК" xmlns="http://www.w3.org/2000/svg" viewBox="0 0 48.39 48.66"><defs><style>.icon-num-1-1,.icon-num-1-3{fill:none}.icon-num-1-2{fill:#568936;fill-rule:evenodd}.icon-num-1-2,.icon-num-1-3{stroke:#37393a;stroke-miterlimit:10}</style></defs><title>statistic__icon_num_1</title><g id="ВПР_НА_ДУШУ" data-name="ВПР НА ДУШУ"><circle class="icon-num-1-1" cx="24.15" cy="24.51" r="24.15"/><path class="icon-num-1-2" d="M-84-1861.46v-1.12l.11-.06a7.91 7.91 0 0 1 1.84-.61l1.15-.25h.07v-4h-3.44v-2h3.42v-2.69h-3.42v-2h3.42v-12.3l-.51-.1a14.52 14.52 0 0 1-2.38-.75l-.23-.1a.11.11 0 0 1-.06-.08v-1h3.71c1 0 2-.06 3-.15A33.23 33.23 0 0 1-73-1889a14.9 14.9 0 0 1 4 .66 8 8 0 0 1 2.57 1.35 6.7 6.7 0 0 1 2.33 3.6 10.39 10.39 0 0 1 .29 3.21 8.33 8.33 0 0 1-.33 2 7.11 7.11 0 0 1-3 3.94 10.43 10.43 0 0 1-3.41 1.43 18.29 18.29 0 0 1-2.76.42c-.61 0-1.21.06-1.82.06H-77a.31.31 0 0 0 0 .05v2.53a.56.56 0 0 0 0 .07h7.69v2H-77v4a13.75 13.75 0 0 1 1.9.35 17.34 17.34 0 0 1 1.82.58v1.1H-84zm6.93-12.84h2a13 13 0 0 0 1.54-.07 8.39 8.39 0 0 0 2-.47 5.09 5.09 0 0 0 2.72-2.34 6.38 6.38 0 0 0 .73-2.42 10.69 10.69 0 0 0 0-1.93 7.85 7.85 0 0 0-.28-1.64 4.77 4.77 0 0 0-2.59-3.08 7.31 7.31 0 0 0-2.37-.66A12.11 12.11 0 0 0-75-1887a10.65 10.65 0 0 0-1.81.13l-.29.06v12.5z" transform="translate(100.57 1899.36)"/><circle class="icon-num-1-3" cx="24.27" cy="24.12" r="23.62"/></g></svg>