<svg id="ЛЕВЫЙ_БЛОК" data-name="ЛЕВЫЙ БЛОК" xmlns="http://www.w3.org/2000/svg" viewBox="0 0 12.23 16.28">
  <defs>
    <style>
      .icon-rub-1 {
        fill: #37393a;
        stroke: #37393a;
        stroke-miterlimit: 10;
        stroke-width: 0.5px;
        fill-rule: evenodd;
      }
    </style>
  </defs>
  <title>statistic__rub</title>
  <g id="ДАННЫЕ">
    <g id="РАЗМЕР_ВПР" data-name="РАЗМЕР ВПР">
      <path id="РУБЛЬ" class="icon-rub-1" d="M419-1886.62v-0.64l0.07,0a4.56,4.56,0,0,1,1.05-.35l0.66-.14h0v-2.31h-2v-1.16h2c0-.06,0-1.4,0-1.54h-2a11.33,11.33,0,0,1,0-1.16h2c0-.06,0-6.91,0-7l-0.29-.06a8.26,8.26,0,0,1-1.36-.43l-0.13-.06a0.07,0.07,0,0,1,0,0c0-.2,0-0.4,0-0.6v0h2.12c0.57,0,1.13,0,1.69-.08a19,19,0,0,1,2.45-.08,8.56,8.56,0,0,1,2.31.38,4.57,4.57,0,0,1,1.47.77,3.84,3.84,0,0,1,1.34,2.06,6,6,0,0,1,.17,1.84,4.73,4.73,0,0,1-.19,1.17,4.07,4.07,0,0,1-1.7,2.25,6,6,0,0,1-2,.82,10.5,10.5,0,0,1-1.58.24c-0.35,0-.69,0-1,0H423a0.17,0.17,0,0,0,0,0v1.49h4.4v1.16H423v2.32a7.82,7.82,0,0,1,1.09.2,10,10,0,0,1,1,.34v0.63H419Zm4-7.35h1.15a7.5,7.5,0,0,0,.88,0,4.84,4.84,0,0,0,1.17-.27,2.91,2.91,0,0,0,1.56-1.34,3.67,3.67,0,0,0,.42-1.38,6.13,6.13,0,0,0,0-1.1A4.64,4.64,0,0,0,428-1899a2.74,2.74,0,0,0-1.49-1.76,4.17,4.17,0,0,0-1.36-.38,6.85,6.85,0,0,0-1,0,6.08,6.08,0,0,0-1,.08l-0.17,0v7.16Z" transform="translate(-418.59 1902.65)"/>
    </g>
  </g>
</svg>
