<svg id="ЛЕВЫЙ_БЛОК" data-name="ЛЕВЫЙ БЛОК" xmlns="http://www.w3.org/2000/svg" viewBox="0 0 57.97 47.4">
  <defs>
    <style>
      .icon-svg-4-1 {
        fill: none;
      }

      .icon-svg-4-1, .icon-svg-4-2, .icon-svg-4-3, .icon-svg-4-4, .icon-svg-4-7 {
        stroke: #37393a;
        stroke-miterlimit: 10;
      }

      .icon-svg-4-2 {
        fill: #c660a4;
      }

      .icon-svg-4-3 {
        fill: #8eadbc;
      }

      .icon-svg-4-4 {
        fill: #fff7d7;
      }

      .icon-svg-4-5 {
        fill: #37393a;
      }

      .icon-svg-4-6 {
        fill: #fff;
      }

      .icon-svg-4-7 {
        fill: #96bf6a;
      }
    </style>
  </defs>
  <title>statistic__icon_num_4</title>
  <g id="СРЕДНЕЕ_ЧИСЛО_МАШИН" data-name="СРЕДНЕЕ ЧИСЛО МАШИН">
    <circle class="icon-svg-4-1" cx="29.14" cy="23.7" r="23.2"/>
    <path class="icon-svg-4-2" d="M-58.84-1673.61h8.14s4.83,2,4.83,5.16v6.64a2.11,2.11,0,0,1-2,1.21h-52.34s-1.34-.09-1.34-2.1v-10.06c0-1,.94-0.84,1.74-0.84a6.88,6.88,0,0,0,5.41-2.59c2-2.46,4.83-6,4.83-6s0.89-1.61,4.39-1.61h13.78C-69.49-1683.81-61.7-1678.89-58.84-1673.61Z" transform="translate(103.33 1697.42)"/>
    <path class="icon-svg-4-3" d="M-78.08-1673.25h13.6c0.54,0,1.07-.85-0.27-2.15s-4.92-5.33-7.65-5.33H-85.46c-0.85,0-5.86,5.55-5.86,5.55s-1.48,1.92,1.39,1.92h11.85Z" transform="translate(103.33 1697.42)"/>
    <path class="icon-svg-4-4" d="M-50.21-1673.25s-1.65,2.33,0,4.14a5.16,5.16,0,0,0,4.34,1.34,5.23,5.23,0,0,0-1.6-3.76A8.42,8.42,0,0,0-50.21-1673.25Z" transform="translate(103.33 1697.42)"/>
    <line class="icon-svg-4-1" x1="25.53" y1="16.69" x2="25.53" y2="34.18"/>
    <line class="icon-svg-4-1" x1="1.81" y1="34.18" x2="57.47" y2="34.18"/>
    <g>
      <circle class="icon-svg-4-5" cx="44.51" cy="36.3" r="6.1"/>
      <circle class="icon-svg-4-6" cx="44.51" cy="36.3" r="3.12"/>
    </g>
    <g>
      <circle class="icon-svg-4-5" cx="12.21" cy="36.3" r="6.1"/>
      <circle class="icon-svg-4-6" cx="12.21" cy="36.3" r="3.12"/>
    </g>
    <circle class="icon-svg-4-7" cx="11.63" cy="16.69" r="11.13"/>
    <g>
      <circle class="icon-svg-4-5" cx="11.62" cy="10.37" r="1.54"/>
      <path class="icon-svg-4-5" d="M-88-1680.32l-0.77-3.73a0.62,0.62,0,0,0-.06-0.14h0a1.29,1.29,0,0,0-1.1-.78h-3.62a1.29,1.29,0,0,0-1.1.78h0a0.56,0.56,0,0,0-.06.14l-0.77,3.73a0.63,0.63,0,0,0,.49.75,0.64,0.64,0,0,0,.75-0.49l0.6-2.89v9.67a0.41,0.41,0,0,0,.41.41h0.6a0.41,0.41,0,0,0,.41-0.41v-4.65a0.47,0.47,0,0,1,.44-0.51h0c0.24,0,.46.18,0.46,0.73v4.43a0.41,0.41,0,0,0,.41.41h0.6a0.41,0.41,0,0,0,.41-0.41v-9.79l0.63,3a0.64,0.64,0,0,0,.75.49A0.64,0.64,0,0,0-88-1680.32Z" transform="translate(103.33 1697.42)"/>
    </g>
  </g>
</svg>
