<?xml version="1.0" encoding="utf-8"?>
<!-- Generator: Adobe Illustrator 19.2.1, SVG Export Plug-In . SVG Version: 6.00 Build 0)  -->
<svg version="1.1" id="Layer_1" xmlns="http://www.w3.org/2000/svg" xmlns:xlink="http://www.w3.org/1999/xlink" x="0px" y="0px"
	 viewBox="0 0 1000 310" style="enable-background:new 0 0 1000 310;" xml:space="preserve">
<style type="text/css">
	.st0{fill:#BBE6EB;}
</style>
<polygon class="st0" points="-94.5,155.3 3.9,-2 3.4,-2.3 -95,155 -95,155 -193.4,312.3 -192.9,312.6 -94.5,155.3 "/>
<polygon class="st0" points="-89.7,155.3 8.7,-2 8.2,-2.3 -90.2,155 -90.2,155 -188.6,312.3 -188.1,312.6 -89.7,155.3 "/>
<polygon class="st0" points="-84.9,155.3 13.5,-2 13.1,-2.3 -85.4,155 -85.4,155 -183.8,312.3 -183.3,312.6 -84.9,155.3 "/>
<polygon class="st0" points="-80.1,155.3 18.4,-2 17.9,-2.3 -80.6,155 -80.6,155 -179,312.3 -178.5,312.6 -80.1,155.3 "/>
<polygon class="st0" points="-75.3,155.3 23.2,-2 22.7,-2.3 -75.8,155 -75.7,155 -174.2,312.3 -173.7,312.6 -75.2,155.3 "/>
<polygon class="st0" points="-70.4,155.3 28,-2 27.5,-2.3 -70.9,155 -70.9,155 -169.4,312.3 -168.9,312.6 -70.4,155.3 "/>
<polygon class="st0" points="-65.6,155.3 32.8,-2 32.3,-2.3 -66.1,155 -66.1,155 -164.5,312.3 -164.1,312.6 -65.6,155.3 "/>
<polygon class="st0" points="-60.8,155.3 37.6,-2 37.1,-2.3 -61.3,155 -61.3,155 -159.7,312.3 -159.3,312.6 -60.8,155.3 "/>
<polygon class="st0" points="-56,155.3 42.4,-2 41.9,-2.3 -56.5,155 -56.5,155 -154.9,312.3 -154.4,312.6 -56,155.3 "/>
<polygon class="st0" points="-51.2,155.3 47.2,-2 46.8,-2.3 -51.7,155 -51.7,155 -150.1,312.3 -149.6,312.6 -51.2,155.3 "/>
<polygon class="st0" points="-46.4,155.3 52,-2 51.6,-2.3 -46.9,155 -46.9,155 -145.3,312.3 -144.8,312.6 -46.4,155.3 "/>
<polygon class="st0" points="-41.6,155.3 56.9,-2 56.4,-2.3 -42.1,155 -42,155 -140.5,312.3 -140,312.6 -41.6,155.3 "/>
<polygon class="st0" points="-36.8,155.3 61.7,-2 61.2,-2.3 -37.3,155 -37.2,155 -135.7,312.3 -135.2,312.6 -36.7,155.3 "/>
<polygon class="st0" points="-31.9,155.3 66.5,-2 66,-2.3 -32.4,155 -32.4,155 -130.9,312.3 -130.4,312.6 -31.9,155.3 "/>
<polygon class="st0" points="-27.1,155.3 71.3,-2 70.8,-2.3 -27.6,155 -27.6,155 -126,312.3 -125.6,312.6 -27.1,155.3 "/>
<polygon class="st0" points="-22.3,155.3 76.1,-2 75.6,-2.3 -22.8,155 -22.8,155 -121.2,312.3 -120.7,312.6 -22.3,155.3 "/>
<polygon class="st0" points="-17.5,155.3 80.9,-2 80.4,-2.3 -18,155 -18,155 -116.4,312.3 -115.9,312.6 -17.5,155.3 "/>
<polygon class="st0" points="-12.7,155.3 85.7,-2 85.3,-2.3 -13.2,155 -13.2,155 -111.6,312.3 -111.1,312.6 -12.7,155.3 "/>
<polygon class="st0" points="-7.9,155.3 90.6,-2 90.1,-2.3 -8.4,155 -8.4,155 -106.8,312.3 -106.3,312.6 -7.9,155.3 "/>
<polygon class="st0" points="-3.1,155.3 95.4,-2 94.9,-2.3 -3.6,155 -3.5,155 -102,312.3 -101.5,312.6 -3,155.3 "/>
<polygon class="st0" points="1.8,155.3 100.2,-2 99.7,-2.3 1.3,155 1.3,155 -97.2,312.3 -96.7,312.6 1.8,155.3 "/>
<polygon class="st0" points="6.6,155.3 105,-2 104.5,-2.3 6.1,155 6.1,155 -92.3,312.3 -91.9,312.6 6.6,155.3 "/>
<polygon class="st0" points="11.4,155.3 109.8,-2 109.3,-2.3 10.9,155 10.9,155 -87.5,312.3 -87.1,312.6 11.4,155.3 "/>
<polygon class="st0" points="16.2,155.3 114.6,-2 114.1,-2.3 15.7,155 15.7,155 -82.7,312.3 -82.2,312.6 16.2,155.3 "/>
<polygon class="st0" points="21,155.3 119.4,-2 119,-2.3 20.5,155 20.5,155 -77.9,312.3 -77.4,312.6 21,155.3 "/>
<polygon class="st0" points="25.8,155.3 124.3,-2 123.8,-2.3 25.3,155 25.3,155 -73.1,312.3 -72.6,312.6 25.8,155.3 "/>
<polygon class="st0" points="30.6,155.3 129.1,-2 128.6,-2.3 30.1,155 30.2,155 -68.3,312.3 -67.8,312.6 30.6,155.3 "/>
<polygon class="st0" points="35.4,155.3 133.9,-2 133.4,-2.3 34.9,155 35,155 -63.5,312.3 -63,312.6 35.5,155.3 "/>
<polygon class="st0" points="40.3,155.3 138.7,-2 138.2,-2.3 39.8,155 39.8,155 -58.7,312.3 -58.2,312.6 40.3,155.3 "/>
<polygon class="st0" points="45.1,155.3 143.5,-2 143,-2.3 44.6,155 44.6,155 -53.8,312.3 -53.4,312.6 45.1,155.3 "/>
<polygon class="st0" points="49.9,155.3 148.3,-2 147.8,-2.3 49.4,155 49.4,155 -49,312.3 -48.5,312.6 49.9,155.3 "/>
<polygon class="st0" points="54.7,155.3 153.1,-2 152.6,-2.3 54.2,155 54.2,155 -44.2,312.3 -43.7,312.6 54.7,155.3 "/>
<polygon class="st0" points="59.5,155.3 157.9,-2 157.5,-2.3 59,155 59,155 -39.4,312.3 -38.9,312.6 59.5,155.3 "/>
<polygon class="st0" points="64.3,155.3 162.8,-2 162.3,-2.3 63.8,155 63.8,155 -34.6,312.3 -34.1,312.6 64.3,155.3 "/>
<polygon class="st0" points="69.1,155.3 167.6,-2 167.1,-2.3 68.6,155 68.7,155 -29.8,312.3 -29.3,312.6 69.2,155.3 "/>
<polygon class="st0" points="74,155.3 172.4,-2 171.9,-2.3 73.5,155 73.5,155 -25,312.3 -24.5,312.6 74,155.3 "/>
<polygon class="st0" points="78.8,155.3 177.2,-2 176.7,-2.3 78.3,155 78.3,155 -20.1,312.3 -19.7,312.6 78.8,155.3 "/>
<polygon class="st0" points="83.6,155.3 182,-2 181.5,-2.3 83.1,155 83.1,155 -15.3,312.3 -14.9,312.6 83.6,155.3 "/>
<polygon class="st0" points="88.4,155.3 186.8,-2 186.3,-2.3 87.9,155 87.9,155 -10.5,312.3 -10,312.6 88.4,155.3 "/>
<polygon class="st0" points="93.2,155.3 191.6,-2 191.2,-2.3 92.7,155 92.7,155 -5.7,312.3 -5.2,312.6 93.2,155.3 "/>
<polygon class="st0" points="98,155.3 196.5,-2 196,-2.3 97.5,155 97.5,155 -0.9,312.3 -0.4,312.6 98,155.3 "/>
<polygon class="st0" points="102.8,155.3 201.3,-2 200.8,-2.3 102.3,155 102.4,155 3.9,312.3 4.4,312.6 102.9,155.3 "/>
<polygon class="st0" points="107.6,155.3 206.1,-2 205.6,-2.3 107.1,155 107.2,155 8.7,312.3 9.2,312.6 107.7,155.3 "/>
<polygon class="st0" points="112.5,155.3 210.9,-2 210.4,-2.3 112,155 112,155 13.5,312.3 14,312.6 112.5,155.3 "/>
<polygon class="st0" points="117.3,155.3 215.7,-2 215.2,-2.3 116.8,155 116.8,155 18.4,312.3 18.8,312.6 117.3,155.3 "/>
<polygon class="st0" points="122.1,155.3 220.5,-2 220,-2.3 121.6,155 121.6,155 23.2,312.3 23.7,312.6 122.1,155.3 "/>
<polygon class="st0" points="126.9,155.3 225.3,-2 224.9,-2.3 126.4,155 126.4,155 28,312.3 28.5,312.6 126.9,155.3 "/>
<polygon class="st0" points="131.7,155.3 230.2,-2 229.7,-2.3 131.2,155 131.2,155 32.8,312.3 33.3,312.6 131.7,155.3 "/>
<polygon class="st0" points="136.5,155.3 235,-2 234.5,-2.3 136,155 136.1,155 37.6,312.3 38.1,312.6 136.6,155.3 "/>
<polygon class="st0" points="141.3,155.3 239.8,-2 239.3,-2.3 140.8,155 140.9,155 42.4,312.3 42.9,312.6 141.4,155.3 "/>
<polygon class="st0" points="146.2,155.3 244.6,-2 244.1,-2.3 145.7,155 145.7,155 47.2,312.3 47.7,312.6 146.2,155.3 "/>
<polygon class="st0" points="151,155.3 249.4,-2 248.9,-2.3 150.5,155 150.5,155 52.1,312.3 52.5,312.6 151,155.3 "/>
<polygon class="st0" points="155.8,155.3 254.2,-2 253.7,-2.3 155.3,155 155.3,155 56.9,312.3 57.4,312.6 155.8,155.3 "/>
<polygon class="st0" points="160.6,155.3 259,-2 258.6,-2.3 160.1,155 160.1,155 61.7,312.3 62.2,312.6 160.6,155.3 "/>
<polygon class="st0" points="165.4,155.3 263.9,-2 263.4,-2.3 164.9,155 164.9,155 66.5,312.3 67,312.6 165.4,155.3 "/>
<polygon class="st0" points="170.2,155.3 268.7,-2 268.2,-2.3 169.7,155 169.8,155 71.3,312.3 71.8,312.6 170.3,155.3 "/>
<polygon class="st0" points="175,155.3 273.5,-2 273,-2.3 174.5,155 174.6,155 76.1,312.3 76.6,312.6 175.1,155.3 "/>
<polygon class="st0" points="179.9,155.3 278.3,-2 277.8,-2.3 179.4,155 179.4,155 80.9,312.3 81.4,312.6 179.9,155.3 "/>
<polygon class="st0" points="184.7,155.3 283.1,-2 282.6,-2.3 184.2,155 184.2,155 85.8,312.3 86.2,312.6 184.7,155.3 "/>
<polygon class="st0" points="189.5,155.3 287.9,-2 287.4,-2.3 189,155 189,155 90.6,312.3 91,312.6 189.5,155.3 "/>
<polygon class="st0" points="194.3,155.3 292.7,-2 292.3,-2.3 193.8,155 193.8,155 95.4,312.3 95.9,312.6 194.3,155.3 "/>
<polygon class="st0" points="199.1,155.3 297.6,-2 297.1,-2.3 198.6,155 198.6,155 100.2,312.3 100.7,312.6 199.1,155.3 "/>
<polygon class="st0" points="203.9,155.3 302.4,-2 301.9,-2.3 203.4,155 203.4,155 105,312.3 105.5,312.6 203.9,155.3 "/>
<polygon class="st0" points="208.7,155.3 307.2,-2 306.7,-2.3 208.2,155 208.3,155 109.8,312.3 110.3,312.6 208.8,155.3 "/>
<polygon class="st0" points="213.6,155.3 312,-2 311.5,-2.3 213.1,155 213.1,155 114.6,312.3 115.1,312.6 213.6,155.3 "/>
<polygon class="st0" points="218.4,155.3 316.8,-2 316.3,-2.3 217.9,155 217.9,155 119.4,312.3 119.9,312.6 218.4,155.3 "/>
<polygon class="st0" points="223.2,155.3 321.6,-2 321.1,-2.3 222.7,155 222.7,155 124.3,312.3 124.7,312.6 223.2,155.3 "/>
<polygon class="st0" points="228,155.3 326.4,-2 325.9,-2.3 227.5,155 227.5,155 129.1,312.3 129.6,312.6 228,155.3 "/>
<polygon class="st0" points="232.8,155.3 331.2,-2 330.8,-2.3 232.3,155 232.3,155 133.9,312.3 134.4,312.6 232.8,155.3 "/>
<polygon class="st0" points="237.6,155.3 336.1,-2 335.6,-2.3 237.1,155 237.1,155 138.7,312.3 139.2,312.6 237.6,155.3 "/>
<polygon class="st0" points="242.4,155.3 340.9,-2 340.4,-2.3 241.9,155 242,155 143.5,312.3 144,312.6 242.5,155.3 "/>
<polygon class="st0" points="247.2,155.3 345.7,-2 345.2,-2.3 246.7,155 246.8,155 148.3,312.3 148.8,312.6 247.3,155.3 "/>
<polygon class="st0" points="252.1,155.3 350.5,-2 350,-2.3 251.6,155 251.6,155 153.1,312.3 153.6,312.6 252.1,155.3 "/>
<polygon class="st0" points="256.9,155.3 355.3,-2 354.8,-2.3 256.4,155 256.4,155 158,312.3 158.4,312.6 256.9,155.3 "/>
<polygon class="st0" points="261.7,155.3 360.1,-2 359.6,-2.3 261.2,155 261.2,155 162.8,312.3 163.3,312.6 261.7,155.3 "/>
<polygon class="st0" points="266.5,155.3 364.9,-2 364.5,-2.3 266,155 266,155 167.6,312.3 168.1,312.6 266.5,155.3 "/>
<polygon class="st0" points="271.3,155.3 369.8,-2 369.3,-2.3 270.8,155 270.8,155 172.4,312.3 172.9,312.6 271.3,155.3 "/>
<polygon class="st0" points="276.1,155.3 374.6,-2 374.1,-2.3 275.6,155 275.7,155 177.2,312.3 177.7,312.6 276.2,155.3 "/>
<polygon class="st0" points="280.9,155.3 379.4,-2 378.9,-2.3 280.4,155 280.5,155 182,312.3 182.5,312.6 281,155.3 "/>
<polygon class="st0" points="285.8,155.3 384.2,-2 383.7,-2.3 285.3,155 285.3,155 186.8,312.3 187.3,312.6 285.8,155.3 "/>
<polygon class="st0" points="290.6,155.3 389,-2 388.5,-2.3 290.1,155 290.1,155 191.7,312.3 192.1,312.6 290.6,155.3 "/>
<polygon class="st0" points="295.4,155.3 393.8,-2 393.3,-2.3 294.9,155 294.9,155 196.5,312.3 197,312.6 295.4,155.3 "/>
<polygon class="st0" points="300.2,155.3 398.6,-2 398.2,-2.3 299.7,155 299.7,155 201.3,312.3 201.8,312.6 300.2,155.3 "/>
<polygon class="st0" points="305,155.3 403.5,-2 403,-2.3 304.5,155 304.5,155 206.1,312.3 206.6,312.6 305,155.3 "/>
<polygon class="st0" points="309.8,155.3 408.3,-2 407.8,-2.3 309.3,155 309.4,155 210.9,312.3 211.4,312.6 309.9,155.3 "/>
<polygon class="st0" points="314.6,155.3 413.1,-2 412.6,-2.3 314.1,155 314.2,155 215.7,312.3 216.2,312.6 314.7,155.3 "/>
<polygon class="st0" points="319.5,155.3 417.9,-2 417.4,-2.3 319,155 319,155 220.5,312.3 221,312.6 319.5,155.3 "/>
<polygon class="st0" points="324.3,155.3 422.7,-2 422.2,-2.3 323.8,155 323.8,155 225.4,312.3 225.8,312.6 324.3,155.3 "/>
<polygon class="st0" points="329.1,155.3 427.5,-2 427,-2.3 328.6,155 328.6,155 230.2,312.3 230.7,312.6 329.1,155.3 "/>
<polygon class="st0" points="333.9,155.3 432.3,-2 431.9,-2.3 333.4,155 333.4,155 235,312.3 235.5,312.6 333.9,155.3 "/>
<polygon class="st0" points="338.7,155.3 437.2,-2 436.7,-2.3 338.2,155 338.2,155 239.8,312.3 240.3,312.6 338.7,155.3 "/>
<polygon class="st0" points="343.5,155.3 442,-2 441.5,-2.3 343,155 343.1,155 244.6,312.3 245.1,312.6 343.6,155.3 "/>
<polygon class="st0" points="348.3,155.3 446.8,-2 446.3,-2.3 347.8,155 347.9,155 249.4,312.3 249.9,312.6 348.4,155.3 "/>
<polygon class="st0" points="353.2,155.3 451.6,-2 451.1,-2.3 352.7,155 352.7,155 254.2,312.3 254.7,312.6 353.2,155.3 "/>
<polygon class="st0" points="358,155.3 456.4,-2 455.9,-2.3 357.5,155 357.5,155 259.1,312.3 259.5,312.6 358,155.3 "/>
<polygon class="st0" points="362.8,155.3 461.2,-2 460.7,-2.3 362.3,155 362.3,155 263.9,312.3 264.3,312.6 362.8,155.3 "/>
<polygon class="st0" points="367.6,155.3 466,-2 465.6,-2.3 367.1,155 367.1,155 268.7,312.3 269.2,312.6 367.6,155.3 "/>
<polygon class="st0" points="372.4,155.3 470.9,-2 470.4,-2.3 371.9,155 371.9,155 273.5,312.3 274,312.6 372.4,155.3 "/>
<polygon class="st0" points="377.2,155.3 475.7,-2 475.2,-2.3 376.7,155 376.7,155 278.3,312.3 278.8,312.6 377.2,155.3 "/>
<polygon class="st0" points="382,155.3 480.5,-2 480,-2.3 381.5,155 381.6,155 283.1,312.3 283.6,312.6 382.1,155.3 "/>
<polygon class="st0" points="386.9,155.3 485.3,-2 484.8,-2.3 386.4,155 386.4,155 287.9,312.3 288.4,312.6 386.9,155.3 "/>
<polygon class="st0" points="391.7,155.3 490.1,-2 489.6,-2.3 391.2,155 391.2,155 292.8,312.3 293.2,312.6 391.7,155.3 "/>
<polygon class="st0" points="396.5,155.3 494.9,-2 494.4,-2.3 396,155 396,155 297.6,312.3 298,312.6 396.5,155.3 "/>
<polygon class="st0" points="401.3,155.3 499.7,-2 499.2,-2.3 400.8,155 400.8,155 302.4,312.3 302.9,312.6 401.3,155.3 "/>
<polygon class="st0" points="406.1,155.3 504.5,-2 504.1,-2.3 405.6,155 405.6,155 307.2,312.3 307.7,312.6 406.1,155.3 "/>
<polygon class="st0" points="410.9,155.3 509.4,-2 508.9,-2.3 410.4,155 410.4,155 312,312.3 312.5,312.6 410.9,155.3 "/>
<polygon class="st0" points="415.7,155.3 514.2,-2 513.7,-2.3 415.2,155 415.3,155 316.8,312.3 317.3,312.6 415.8,155.3 "/>
<polygon class="st0" points="420.5,155.3 519,-2 518.5,-2.3 420,155 420.1,155 321.6,312.3 322.1,312.6 420.6,155.3 "/>
<polygon class="st0" points="425.4,155.3 523.8,-2 523.3,-2.3 424.9,155 424.9,155 326.4,312.3 326.9,312.6 425.4,155.3 "/>
<polygon class="st0" points="430.2,155.3 528.6,-2 528.1,-2.3 429.7,155 429.7,155 331.3,312.3 331.7,312.6 430.2,155.3 "/>
<polygon class="st0" points="435,155.3 533.4,-2 532.9,-2.3 434.5,155 434.5,155 336.1,312.3 336.6,312.6 435,155.3 "/>
<polygon class="st0" points="439.8,155.3 538.2,-2 537.8,-2.3 439.3,155 439.3,155 340.9,312.3 341.4,312.6 439.8,155.3 "/>
<polygon class="st0" points="444.6,155.3 543.1,-2 542.6,-2.3 444.1,155 444.1,155 345.7,312.3 346.2,312.6 444.6,155.3 "/>
<polygon class="st0" points="449.4,155.3 547.9,-2 547.4,-2.3 448.9,155 449,155 350.5,312.3 351,312.6 449.5,155.3 "/>
<polygon class="st0" points="454.2,155.3 552.7,-2 552.2,-2.3 453.7,155 453.8,155 355.3,312.3 355.8,312.6 454.3,155.3 "/>
<polygon class="st0" points="459.1,155.3 557.5,-2 557,-2.3 458.6,155 458.6,155 360.1,312.3 360.6,312.6 459.1,155.3 "/>
<polygon class="st0" points="463.9,155.3 562.3,-2 561.8,-2.3 463.4,155 463.4,155 365,312.3 365.4,312.6 463.9,155.3 "/>
<polygon class="st0" points="468.7,155.3 567.1,-2 566.6,-2.3 468.2,155 468.2,155 369.8,312.3 370.3,312.6 468.7,155.3 "/>
<polygon class="st0" points="473.5,155.3 571.9,-2 571.5,-2.3 473,155 473,155 374.6,312.3 375.1,312.6 473.5,155.3 "/>
<polygon class="st0" points="478.3,155.3 576.8,-2 576.3,-2.3 477.8,155 477.8,155 379.4,312.3 379.9,312.6 478.3,155.3 "/>
<polygon class="st0" points="483.1,155.3 581.6,-2 581.1,-2.3 482.6,155 482.7,155 384.2,312.3 384.7,312.6 483.2,155.3 "/>
<polygon class="st0" points="487.9,155.3 586.4,-2 585.9,-2.3 487.4,155 487.5,155 389,312.3 389.5,312.6 488,155.3 "/>
<polygon class="st0" points="492.8,155.3 591.2,-2 590.7,-2.3 492.3,155 492.3,155 393.8,312.3 394.3,312.6 492.8,155.3 "/>
<polygon class="st0" points="497.6,155.3 596,-2 595.5,-2.3 497.1,155 497.1,155 398.7,312.3 399.1,312.6 497.6,155.3 "/>
<polygon class="st0" points="502.4,155.3 600.8,-2 600.3,-2.3 501.9,155 501.9,155 403.5,312.3 404,312.6 502.4,155.3 "/>
<polygon class="st0" points="507.2,155.3 605.6,-2 605.2,-2.3 506.7,155 506.7,155 408.3,312.3 408.8,312.6 507.2,155.3 "/>
<polygon class="st0" points="512,155.3 610.5,-2 610,-2.3 511.5,155 511.5,155 413.1,312.3 413.6,312.6 512,155.3 "/>
<polygon class="st0" points="516.8,155.3 615.3,-2 614.8,-2.3 516.3,155 516.4,155 417.9,312.3 418.4,312.6 516.9,155.3 "/>
<polygon class="st0" points="521.6,155.3 620.1,-2 619.6,-2.3 521.1,155 521.2,155 422.7,312.3 423.2,312.6 521.7,155.3 "/>
<polygon class="st0" points="526.5,155.3 624.9,-2 624.4,-2.3 526,155 526,155 427.5,312.3 428,312.6 526.5,155.3 "/>
<polygon class="st0" points="531.3,155.3 629.7,-2 629.2,-2.3 530.8,155 530.8,155 432.4,312.3 432.8,312.6 531.3,155.3 "/>
<polygon class="st0" points="536.1,155.3 634.5,-2 634,-2.3 535.6,155 535.6,155 437.2,312.3 437.7,312.6 536.1,155.3 "/>
<polygon class="st0" points="540.9,155.3 639.3,-2 638.9,-2.3 540.4,155 540.4,155 442,312.3 442.5,312.6 540.9,155.3 "/>
<polygon class="st0" points="545.7,155.3 644.2,-2 643.7,-2.3 545.2,155 545.2,155 446.8,312.3 447.3,312.6 545.7,155.3 "/>
<polygon class="st0" points="550.5,155.3 649,-2 648.5,-2.3 550,155 550,155 451.6,312.3 452.1,312.6 550.6,155.3 "/>
<polygon class="st0" points="555.3,155.3 653.8,-2 653.3,-2.3 554.8,155 554.9,155 456.4,312.3 456.9,312.6 555.4,155.3 "/>
<polygon class="st0" points="560.2,155.3 658.6,-2 658.1,-2.3 559.7,155 559.7,155 461.2,312.3 461.7,312.6 560.2,155.3 "/>
<polygon class="st0" points="565,155.3 663.4,-2 662.9,-2.3 564.5,155 564.5,155 466.1,312.3 466.5,312.6 565,155.3 "/>
<polygon class="st0" points="569.8,155.3 668.2,-2 667.7,-2.3 569.3,155 569.3,155 470.9,312.3 471.3,312.6 569.8,155.3 "/>
<polygon class="st0" points="574.6,155.3 673,-2 672.6,-2.3 574.1,155 574.1,155 475.7,312.3 476.2,312.6 574.6,155.3 "/>
<polygon class="st0" points="579.4,155.3 677.8,-2 677.4,-2.3 578.9,155 578.9,155 480.5,312.3 481,312.6 579.4,155.3 "/>
<polygon class="st0" points="584.2,155.3 682.7,-2 682.2,-2.3 583.7,155 583.7,155 485.3,312.3 485.8,312.6 584.2,155.3 "/>
<polygon class="st0" points="589,155.3 687.5,-2 687,-2.3 588.5,155 588.6,155 490.1,312.3 490.6,312.6 589.1,155.3 "/>
<polygon class="st0" points="593.8,155.3 692.3,-2 691.8,-2.3 593.3,155 593.4,155 494.9,312.3 495.4,312.6 593.9,155.3 "/>
<polygon class="st0" points="598.7,155.3 697.1,-2 696.6,-2.3 598.2,155 598.2,155 499.7,312.3 500.2,312.6 598.7,155.3 "/>
<polygon class="st0" points="603.5,155.3 701.9,-2 701.4,-2.3 603,155 603,155 504.6,312.3 505,312.6 603.5,155.3 "/>
<polygon class="st0" points="608.3,155.3 706.7,-2 706.2,-2.3 607.8,155 607.8,155 509.4,312.3 509.9,312.6 608.3,155.3 "/>
<polygon class="st0" points="613.1,155.3 711.5,-2 711.1,-2.3 612.6,155 612.6,155 514.2,312.3 514.7,312.6 613.1,155.3 "/>
<polygon class="st0" points="617.9,155.3 716.4,-2 715.9,-2.3 617.4,155 617.4,155 519,312.3 519.5,312.6 617.9,155.3 "/>
<polygon class="st0" points="622.7,155.3 721.2,-2 720.7,-2.3 622.2,155 622.3,155 523.8,312.3 524.3,312.6 622.8,155.3 "/>
<polygon class="st0" points="627.5,155.3 726,-2 725.5,-2.3 627,155 627.1,155 528.6,312.3 529.1,312.6 627.6,155.3 "/>
<polygon class="st0" points="632.4,155.3 730.8,-2 730.3,-2.3 631.9,155 631.9,155 533.4,312.3 533.9,312.6 632.4,155.3 "/>
<polygon class="st0" points="637.2,155.3 735.6,-2 735.1,-2.3 636.7,155 636.7,155 538.3,312.3 538.7,312.6 637.2,155.3 "/>
<polygon class="st0" points="642,155.3 740.4,-2 739.9,-2.3 641.5,155 641.5,155 543.1,312.3 543.6,312.6 642,155.3 "/>
<polygon class="st0" points="646.8,155.3 745.2,-2 744.8,-2.3 646.3,155 646.3,155 547.9,312.3 548.4,312.6 646.8,155.3 "/>
<polygon class="st0" points="651.6,155.3 750.1,-2 749.6,-2.3 651.1,155 651.1,155 552.7,312.3 553.2,312.6 651.6,155.3 "/>
<polygon class="st0" points="656.4,155.3 754.9,-2 754.4,-2.3 655.9,155 656,155 557.5,312.3 558,312.6 656.5,155.3 "/>
<polygon class="st0" points="661.2,155.3 759.7,-2 759.2,-2.3 660.7,155 660.8,155 562.3,312.3 562.8,312.6 661.3,155.3 "/>
<polygon class="st0" points="666.1,155.3 764.5,-2 764,-2.3 665.6,155 665.6,155 567.1,312.3 567.6,312.6 666.1,155.3 "/>
<polygon class="st0" points="670.9,155.3 769.3,-2 768.8,-2.3 670.4,155 670.4,155 572,312.3 572.4,312.6 670.9,155.3 "/>
<polygon class="st0" points="675.7,155.3 774.1,-2 773.6,-2.3 675.2,155 675.2,155 576.8,312.3 577.3,312.6 675.7,155.3 "/>
<polygon class="st0" points="680.5,155.3 778.9,-2 778.5,-2.3 680,155 680,155 581.6,312.3 582.1,312.6 680.5,155.3 "/>
<polygon class="st0" points="685.3,155.3 783.8,-2 783.3,-2.3 684.8,155 684.8,155 586.4,312.3 586.9,312.6 685.3,155.3 "/>
<polygon class="st0" points="690.1,155.3 788.6,-2 788.1,-2.3 689.6,155 689.7,155 591.2,312.3 591.7,312.6 690.2,155.3 "/>
<polygon class="st0" points="694.9,155.3 793.4,-2 792.9,-2.3 694.4,155 694.5,155 596,312.3 596.5,312.6 695,155.3 "/>
<polygon class="st0" points="699.8,155.3 798.2,-2 797.7,-2.3 699.3,155 699.3,155 600.8,312.3 601.3,312.6 699.8,155.3 "/>
<polygon class="st0" points="704.6,155.3 803,-2 802.5,-2.3 704.1,155 704.1,155 605.7,312.3 606.1,312.6 704.6,155.3 "/>
<polygon class="st0" points="709.4,155.3 807.8,-2 807.3,-2.3 708.9,155 708.9,155 610.5,312.3 611,312.6 709.4,155.3 "/>
<polygon class="st0" points="714.2,155.3 812.6,-2 812.2,-2.3 713.7,155 713.7,155 615.3,312.3 615.8,312.6 714.2,155.3 "/>
<polygon class="st0" points="719,155.3 817.5,-2 817,-2.3 718.5,155 718.5,155 620.1,312.3 620.6,312.6 719,155.3 "/>
<polygon class="st0" points="723.8,155.3 822.3,-2 821.8,-2.3 723.3,155 723.3,155 624.9,312.3 625.4,312.6 723.9,155.3 "/>
<polygon class="st0" points="728.6,155.3 827.1,-2 826.6,-2.3 728.1,155 728.2,155 629.7,312.3 630.2,312.6 728.7,155.3 "/>
<polygon class="st0" points="733.5,155.3 831.9,-2 831.4,-2.3 733,155 733,155 634.5,312.3 635,312.6 733.5,155.3 "/>
<polygon class="st0" points="738.3,155.3 836.7,-2 836.2,-2.3 737.8,155 737.8,155 639.4,312.3 639.8,312.6 738.3,155.3 "/>
<polygon class="st0" points="743.1,155.3 841.5,-2 841,-2.3 742.6,155 742.6,155 644.2,312.3 644.6,312.6 743.1,155.3 "/>
<polygon class="st0" points="747.9,155.3 846.3,-2 845.9,-2.3 747.4,155 747.4,155 649,312.3 649.5,312.6 747.9,155.3 "/>
<polygon class="st0" points="752.7,155.3 851.2,-2 850.7,-2.3 752.2,155 752.2,155 653.8,312.3 654.3,312.6 752.7,155.3 "/>
<polygon class="st0" points="757.5,155.3 856,-2 855.5,-2.3 757,155 757,155 658.6,312.3 659.1,312.6 757.5,155.3 "/>
<polygon class="st0" points="762.3,155.3 860.8,-2 860.3,-2.3 761.8,155 761.9,155 663.4,312.3 663.9,312.6 762.4,155.3 "/>
<polygon class="st0" points="767.1,155.3 865.6,-2 865.1,-2.3 766.7,155 766.7,155 668.2,312.3 668.7,312.6 767.2,155.3 "/>
<polygon class="st0" points="772,155.3 870.4,-2 869.9,-2.3 771.5,155 771.5,155 673,312.3 673.5,312.6 772,155.3 "/>
<polygon class="st0" points="776.8,155.3 875.2,-2 874.7,-2.3 776.3,155 776.3,155 677.9,312.3 678.3,312.6 776.8,155.3 "/>
<polygon class="st0" points="781.6,155.3 880,-2 879.5,-2.3 781.1,155 781.1,155 682.7,312.3 683.2,312.6 781.6,155.3 "/>
<polygon class="st0" points="786.4,155.3 884.8,-2 884.4,-2.3 785.9,155 785.9,155 687.5,312.3 688,312.6 786.4,155.3 "/>
<polygon class="st0" points="791.2,155.3 889.7,-2 889.2,-2.3 790.7,155 790.7,155 692.3,312.3 692.8,312.6 791.2,155.3 "/>
<polygon class="st0" points="796,155.3 894.5,-2 894,-2.3 795.5,155 795.6,155 697.1,312.3 697.6,312.6 796.1,155.3 "/>
<polygon class="st0" points="800.8,155.3 899.3,-2 898.8,-2.3 800.3,155 800.4,155 701.9,312.3 702.4,312.6 800.9,155.3 "/>
<polygon class="st0" points="805.7,155.3 904.1,-2 903.6,-2.3 805.2,155 805.2,155 706.7,312.3 707.2,312.6 805.7,155.3 "/>
<polygon class="st0" points="810.5,155.3 908.9,-2 908.4,-2.3 810,155 810,155 711.6,312.3 712,312.6 810.5,155.3 "/>
<polygon class="st0" points="815.3,155.3 913.7,-2 913.2,-2.3 814.8,155 814.8,155 716.4,312.3 716.9,312.6 815.3,155.3 "/>
<polygon class="st0" points="820.1,155.3 918.5,-2 918.1,-2.3 819.6,155 819.6,155 721.2,312.3 721.7,312.6 820.1,155.3 "/>
<polygon class="st0" points="824.9,155.3 923.4,-2 922.9,-2.3 824.4,155 824.4,155 726,312.3 726.5,312.6 824.9,155.3 "/>
<polygon class="st0" points="829.7,155.3 928.2,-2 927.7,-2.3 829.2,155 829.3,155 730.8,312.3 731.3,312.6 829.8,155.3 "/>
<polygon class="st0" points="834.5,155.3 933,-2 932.5,-2.3 834,155 834.1,155 735.6,312.3 736.1,312.6 834.6,155.3 "/>
<polygon class="st0" points="839.4,155.3 937.8,-2 937.3,-2.3 838.9,155 838.9,155 740.4,312.3 740.9,312.6 839.4,155.3 "/>
<polygon class="st0" points="844.2,155.3 942.6,-2 942.1,-2.3 843.7,155 843.7,155 745.3,312.3 745.7,312.6 844.2,155.3 "/>
<polygon class="st0" points="849,155.3 947.4,-2 946.9,-2.3 848.5,155 848.5,155 750.1,312.3 750.6,312.6 849,155.3 "/>
<polygon class="st0" points="853.8,155.3 952.2,-2 951.8,-2.3 853.3,155 853.3,155 754.9,312.3 755.4,312.6 853.8,155.3 "/>
<polygon class="st0" points="858.6,155.3 957.1,-2 956.6,-2.3 858.1,155 858.1,155 759.7,312.3 760.2,312.6 858.6,155.3 "/>
<polygon class="st0" points="863.4,155.3 961.9,-2 961.4,-2.3 862.9,155 863,155 764.5,312.3 765,312.6 863.5,155.3 "/>
<polygon class="st0" points="868.2,155.3 966.7,-2 966.2,-2.3 867.7,155 867.8,155 769.3,312.3 769.8,312.6 868.3,155.3 "/>
<polygon class="st0" points="873.1,155.3 971.5,-2 971,-2.3 872.6,155 872.6,155 774.1,312.3 774.6,312.6 873.1,155.3 "/>
<polygon class="st0" points="877.9,155.3 976.3,-2 975.8,-2.3 877.4,155 877.4,155 779,312.3 779.4,312.6 877.9,155.3 "/>
<polygon class="st0" points="882.7,155.3 981.1,-2 980.6,-2.3 882.2,155 882.2,155 783.8,312.3 784.3,312.6 882.7,155.3 "/>
<polygon class="st0" points="887.5,155.3 985.9,-2 985.5,-2.3 887,155 887,155 788.6,312.3 789.1,312.6 887.5,155.3 "/>
<polygon class="st0" points="892.3,155.3 990.8,-2 990.3,-2.3 891.8,155 891.8,155 793.4,312.3 793.9,312.6 892.3,155.3 "/>
<polygon class="st0" points="897.1,155.3 995.6,-2 995.1,-2.3 896.6,155 896.7,155 798.2,312.3 798.7,312.6 897.2,155.3 "/>
<polygon class="st0" points="901.9,155.3 1000.4,-2 999.9,-2.3 901.4,155 901.5,155 803,312.3 803.5,312.6 902,155.3 "/>
<polygon class="st0" points="906.8,155.3 1005.2,-2 1004.7,-2.3 906.3,155 906.3,155 807.8,312.3 808.3,312.6 906.8,155.3 "/>
<polygon class="st0" points="911.6,155.3 1010,-2 1009.5,-2.3 911.1,155 911.1,155 812.7,312.3 813.1,312.6 911.6,155.3 "/>
<polygon class="st0" points="916.4,155.3 1014.8,-2 1014.3,-2.3 915.9,155 915.9,155 817.5,312.3 817.9,312.6 916.4,155.3 "/>
<polygon class="st0" points="921.2,155.3 1019.6,-2 1019.2,-2.3 920.7,155 920.7,155 822.3,312.3 822.8,312.6 921.2,155.3 "/>
<polygon class="st0" points="926,155.3 1024.5,-2 1024,-2.3 925.5,155 925.5,155 827.1,312.3 827.6,312.6 926,155.3 "/>
<polygon class="st0" points="930.8,155.3 1029.3,-2 1028.8,-2.3 930.3,155 930.3,155 831.9,312.3 832.4,312.6 930.8,155.3 "/>
<polygon class="st0" points="935.6,155.3 1034.1,-2 1033.6,-2.3 935.1,155 935.2,155 836.7,312.3 837.2,312.6 935.7,155.3 "/>
<polygon class="st0" points="940.5,155.3 1038.9,-2 1038.4,-2.3 940,155 940,155 841.5,312.3 842,312.6 940.5,155.3 "/>
<polygon class="st0" points="945.3,155.3 1043.7,-2 1043.2,-2.3 944.8,155 944.8,155 846.3,312.3 846.8,312.6 945.3,155.3 "/>
<polygon class="st0" points="950.1,155.3 1048.5,-2 1048,-2.3 949.6,155 949.6,155 851.2,312.3 851.6,312.6 950.1,155.3 "/>
<polygon class="st0" points="954.9,155.3 1053.3,-2 1052.8,-2.3 954.4,155 954.4,155 856,312.3 856.5,312.6 954.9,155.3 "/>
<polygon class="st0" points="959.7,155.3 1058.1,-2 1057.7,-2.3 959.2,155 959.2,155 860.8,312.3 861.3,312.6 959.7,155.3 "/>
<polygon class="st0" points="964.5,155.3 1063,-2 1062.5,-2.3 964,155 964,155 865.6,312.3 866.1,312.6 964.5,155.3 "/>
<polygon class="st0" points="969.3,155.3 1067.8,-2 1067.3,-2.3 968.8,155 968.9,155 870.4,312.3 870.9,312.6 969.4,155.3 "/>
<polygon class="st0" points="974.1,155.3 1072.6,-2 1072.1,-2.3 973.6,155 973.7,155 875.2,312.3 875.7,312.6 974.2,155.3 "/>
<polygon class="st0" points="979,155.3 1077.4,-2 1076.9,-2.3 978.5,155 978.5,155 880,312.3 880.5,312.6 979,155.3 "/>
<polygon class="st0" points="983.8,155.3 1082.2,-2 1081.7,-2.3 983.3,155 983.3,155 884.9,312.3 885.3,312.6 983.8,155.3 "/>
<polygon class="st0" points="988.6,155.3 1087,-2 1086.5,-2.3 988.1,155 988.1,155 889.7,312.3 890.2,312.6 988.6,155.3 "/>
<polygon class="st0" points="993.4,155.3 1091.8,-2 1091.4,-2.3 992.9,155 992.9,155 894.5,312.3 895,312.6 993.4,155.3 "/>
<polygon class="st0" points="998.2,155.3 1096.7,-2 1096.2,-2.3 997.7,155 997.7,155 899.3,312.3 899.8,312.6 998.2,155.3 "/>
<polygon class="st0" points="1003,155.3 1101.5,-2 1101,-2.3 1002.5,155 1002.6,155 904.1,312.3 904.6,312.6 1003.1,155.3 "/>
<polygon class="st0" points="1007.8,155.3 1106.3,-2 1105.8,-2.3 1007.3,155 1007.4,155 908.9,312.3 909.4,312.6 1007.9,155.3 "/>
<polygon class="st0" points="1012.7,155.3 1111.1,-2 1110.6,-2.3 1012.2,155 1012.2,155 913.7,312.3 914.2,312.6 1012.7,155.3 "/>
<polygon class="st0" points="1017.5,155.3 1115.9,-2 1115.4,-2.3 1017,155 1017,155 918.6,312.3 919,312.6 1017.5,155.3 "/>
<polygon class="st0" points="1022.3,155.3 1120.7,-2 1120.2,-2.3 1021.8,155 1021.8,155 923.4,312.3 923.9,312.6 1022.3,155.3 "/>
<polygon class="st0" points="1027.1,155.3 1125.5,-2 1125.1,-2.3 1026.6,155 1026.6,155 928.2,312.3 928.7,312.6 1027.1,155.3 "/>
<polygon class="st0" points="1031.9,155.3 1130.4,-2 1129.9,-2.3 1031.4,155 1031.4,155 933,312.3 933.5,312.6 1031.9,155.3 "/>
<polygon class="st0" points="1036.7,155.3 1135.2,-2 1134.7,-2.3 1036.2,155 1036.3,155 937.8,312.3 938.3,312.6 1036.8,155.3 "/>
<polygon class="st0" points="1041.5,155.3 1140,-2 1139.5,-2.3 1041,155 1041.1,155 942.6,312.3 943.1,312.6 1041.6,155.3 "/>
<polygon class="st0" points="1046.4,155.3 1144.8,-2 1144.3,-2.3 1045.9,155 1045.9,155 947.4,312.3 947.9,312.6 1046.4,155.3 "/>
<polygon class="st0" points="1051.2,155.3 1149.6,-2 1149.1,-2.3 1050.7,155 1050.7,155 952.3,312.3 952.7,312.6 1051.2,155.3 "/>
<polygon class="st0" points="1056,155.3 1154.4,-2 1153.9,-2.3 1055.5,155 1055.5,155 957.1,312.3 957.6,312.6 1056,155.3 "/>
<polygon class="st0" points="1060.8,155.3 1159.2,-2 1158.8,-2.3 1060.3,155 1060.3,155 961.9,312.3 962.4,312.6 1060.8,155.3 "/>
<polygon class="st0" points="1065.6,155.3 1164.1,-2 1163.6,-2.3 1065.1,155 1065.1,155 966.7,312.3 967.2,312.6 1065.6,155.3 "/>
<polygon class="st0" points="1070.4,155.3 1168.9,-2 1168.4,-2.3 1069.9,155 1069.9,155 971.5,312.3 972,312.6 1070.5,155.3 "/>
<polygon class="st0" points="1075.2,155.3 1173.7,-2 1173.2,-2.3 1074.7,155 1074.8,155 976.3,312.3 976.8,312.6 1075.3,155.3 "/>
<polygon class="st0" points="1080.1,155.3 1178.5,-2 1178,-2.3 1079.6,155 1079.6,155 981.1,312.3 981.6,312.6 1080.1,155.3 "/>
<polygon class="st0" points="1084.9,155.3 1183.3,-2 1182.8,-2.3 1084.4,155 1084.4,155 986,312.3 986.4,312.6 1084.9,155.3 "/>
<polygon class="st0" points="1089.7,155.3 1188.1,-2 1187.6,-2.3 1089.2,155 1089.2,155 990.8,312.3 991.2,312.6 1089.7,155.3 "/>
<polygon class="st0" points="1094.5,155.3 1192.9,-2 1192.5,-2.3 1094,155 1094,155 995.6,312.3 996.1,312.6 1094.5,155.3 "/>
</svg>
