<svg id="ЛЕВЫЙ_БЛОК" data-name="ЛЕВЫЙ БЛОК" xmlns="http://www.w3.org/2000/svg" viewBox="0 0 48.39 48.66">
  <defs>
    <style>
      .cls-1, .cls-3 {
        fill: none;
      }

      .cls-2 {
        fill: #568936;
        fill-rule: evenodd;
      }

      .cls-2, .cls-3 {
        stroke: #37393a;
        stroke-miterlimit: 10;
      }
    </style>
  </defs>
  <title>statistic__icon_num_1</title>
  <g id="ВПР_НА_ДУШУ" data-name="ВПР НА ДУШУ">
    <circle class="cls-1" cx="24.15" cy="24.51" r="24.15"/>
    <path class="cls-2" d="M-84-1861.46v-1.12l0.11-.06a7.91,7.91,0,0,1,1.84-.61l1.15-.25,0.07,0v-4h-3.44v-2h3.42c0-.11,0-2.44,0-2.69h-3.42c0-.11,0-1.81,0-2h3.42c0-.11,0-12.07,0-12.3l-0.51-.1a14.52,14.52,0,0,1-2.38-.75l-0.23-.1a0.11,0.11,0,0,1-.06-0.08c0-.35,0-0.69,0-1l0,0h3.71c1,0,2-.06,3-0.15A33.23,33.23,0,0,1-73-1889a14.9,14.9,0,0,1,4,.66,8,8,0,0,1,2.57,1.35,6.7,6.7,0,0,1,2.33,3.6,10.39,10.39,0,0,1,.29,3.21,8.33,8.33,0,0,1-.33,2,7.11,7.11,0,0,1-3,3.94,10.43,10.43,0,0,1-3.41,1.43,18.29,18.29,0,0,1-2.76.42c-0.61,0-1.21.06-1.82,0.06H-77l0,0h0a0.31,0.31,0,0,0,0,.05q0,1.26,0,2.53a0.56,0.56,0,0,0,0,.07h7.69v2h-7.69v4a13.75,13.75,0,0,1,1.9.35,17.34,17.34,0,0,1,1.82.58v1.1H-84Zm6.93-12.84h2a13,13,0,0,0,1.54-.07,8.39,8.39,0,0,0,2-.47,5.09,5.09,0,0,0,2.72-2.34,6.38,6.38,0,0,0,.73-2.42,10.69,10.69,0,0,0,0-1.93,7.85,7.85,0,0,0-.28-1.64,4.77,4.77,0,0,0-2.59-3.08,7.31,7.31,0,0,0-2.37-.66A12.11,12.11,0,0,0-75-1887a10.65,10.65,0,0,0-1.81.13l-0.29.06v12.5Z" transform="translate(100.57 1899.36)"/>
    <circle class="cls-3" cx="24.27" cy="24.12" r="23.62"/>
  </g>
</svg>
