<svg id="ЛЕВЫЙ_БЛОК" data-name="ЛЕВЫЙ БЛОК" xmlns="http://www.w3.org/2000/svg" viewBox="0 0 47.4 47.4">
  <defs>
    <style>
      .cls-1 {
        fill: none;
        stroke: #37393a;
        stroke-miterlimit: 10;
      }

      .cls-2 {
        fill: #37393a;
      }
    </style>
  </defs>
  <title>statistic__icon_num_2</title>
  <g id="ИНДЕКС_КАЧЕСТВА" data-name="ИНДЕКС КАЧЕСТВА">
    <circle class="cls-1" cx="23.7" cy="23.7" r="23.2"/>
    <g>
      <circle class="cls-2" cx="23.84" cy="9.74" r="3.4"/>
      <path class="cls-2" d="M-65.78-1807.81l-1.71-8.25a1.4,1.4,0,0,0-.14-0.32h0a2.85,2.85,0,0,0-2.42-1.73c-1.35,0-3.54,0-3.54,0h-0.91s-2.19,0-3.54,0a2.85,2.85,0,0,0-2.42,1.73h0a1.26,1.26,0,0,0-.14.32l-1.71,8.25a1.4,1.4,0,0,0,1.09,1.66,1.4,1.4,0,0,0,1.66-1.09l1.33-6.38v21.36a0.9,0.9,0,0,0,.9.9H-76a0.9,0.9,0,0,0,.9-0.9v-10.27a1,1,0,0,1,1-1.12h0c0.54,0,1,.41,1,1.61v9.78a0.9,0.9,0,0,0,.9.9h1.33a0.9,0.9,0,0,0,.9-0.9v-21.64l1.38,6.66a1.41,1.41,0,0,0,1.67,1.09A1.4,1.4,0,0,0-65.78-1807.81Z" transform="translate(97.9 1832.42)"/>
    </g>
  </g>
</svg>
